<svg width="20" height="20" viewBox="0 0 20 20" fill="none" xmlns="http://www.w3.org/2000/svg">
<path d="M17.78 2.22C17.9205 2.36062 17.9993 2.55125 17.9993 2.75C17.9993 2.94875 17.9205 3.13937 17.78 3.28L16.335 4.726C16.8643 5.5029 17.1059 6.44017 17.0181 7.37615C16.9303 8.31212 16.5186 9.1881 15.854 9.853L15.554 10.153L15.551 10.156L15.242 10.465C15.0451 10.6616 14.7782 10.7721 14.5 10.7721C14.2217 10.7721 13.9549 10.6616 13.758 10.465L9.535 6.242C9.43749 6.14449 9.36013 6.02874 9.30736 5.90134C9.25459 5.77394 9.22742 5.63739 9.22742 5.4995C9.22742 5.3616 9.25459 5.22505 9.30736 5.09765C9.36013 4.97026 9.43749 4.8545 9.535 4.757L10.146 4.147C10.8113 3.48268 11.6874 3.07117 12.6234 2.98337C13.5595 2.89557 14.4968 3.13698 15.274 3.666L16.72 2.22C16.8606 2.07955 17.0512 2.00066 17.25 2.00066C17.4487 2.00066 17.6394 2.07955 17.78 2.22V2.22ZM8.78 8.47C8.92045 8.61062 8.99934 8.80125 8.99934 9C8.99934 9.19875 8.92045 9.38937 8.78 9.53L7.51 10.802L9.2 12.492L10.47 11.22C10.5392 11.1483 10.6219 11.0912 10.7134 11.0518C10.8049 11.0125 10.9033 10.9917 11.0028 10.9908C11.1024 10.9899 11.2012 11.0088 11.2934 11.0465C11.3856 11.0842 11.4693 11.1398 11.5398 11.2102C11.6102 11.2806 11.666 11.3643 11.7037 11.4565C11.7415 11.5486 11.7605 11.6474 11.7597 11.7469C11.7589 11.8465 11.7382 11.9449 11.699 12.0365C11.6597 12.128 11.6026 12.2108 11.531 12.28L10.255 13.557C10.4889 13.843 10.6082 14.2057 10.5897 14.5748C10.5712 14.9438 10.4163 15.2928 10.155 15.554L9.855 15.854C9.18992 16.5187 8.31368 16.9304 7.37749 17.018C6.4413 17.1056 5.50388 16.8637 4.727 16.334L3.28 17.78C3.13782 17.9125 2.94978 17.9846 2.75548 17.9812C2.56118 17.9777 2.37579 17.899 2.23838 17.7616C2.10096 17.6242 2.02225 17.4388 2.01882 17.2445C2.0154 17.0502 2.08752 16.8622 2.22 16.72L3.665 15.274C3.13568 14.4971 2.89408 13.5598 2.98189 12.6238C3.06971 11.6879 3.48141 10.8119 4.146 10.147L4.446 9.847C4.70722 9.58569 5.05621 9.43076 5.42523 9.41228C5.79426 9.39381 6.15698 9.51309 6.443 9.747L7.72 8.47C7.86062 8.32955 8.05125 8.25066 8.25 8.25066C8.44875 8.25066 8.63937 8.32955 8.78 8.47V8.47Z" fill="#BC3C3C"/>
</svg>
