<svg width="130" height="140" viewBox="0 0 130 140" fill="none" xmlns="http://www.w3.org/2000/svg">
<path d="M38.4404 89.5H90.4404M51.4404 135H77.4404H51.4404ZM18.9404 50.5C18.9404 38.4326 23.7341 26.8595 32.2671 18.3266C40.8 9.79374 52.3731 5 64.4404 5C76.5078 5 88.0809 9.79374 96.6138 18.3266C105.147 26.8595 109.94 38.4326 109.94 50.5C109.945 57.826 108.173 65.0438 104.777 71.535C101.38 78.0262 96.4613 83.5973 90.4404 87.771L86.9174 104.45C86.451 107.524 84.8981 110.33 82.5404 112.357C80.1827 114.384 77.1764 115.499 74.0669 115.5H54.8139C51.7044 115.499 48.6981 114.384 46.3404 112.357C43.9828 110.33 42.4298 107.524 41.9634 104.45L38.4404 87.8425C32.4176 83.6541 27.4981 78.0699 24.1024 71.5671C20.7067 65.0643 18.9356 57.8361 18.9404 50.5V50.5Z" stroke="#7D828A" stroke-width="10" stroke-linecap="round" stroke-linejoin="round"/>
</svg>
