<svg width="38" height="38" viewBox="0 0 38 38" fill="none" xmlns="http://www.w3.org/2000/svg">
<path d="M31.6667 19H6.33334C5.49349 19 4.68803 19.3336 4.09417 19.9275C3.5003 20.5214 3.16667 21.3268 3.16667 22.1667V34.8333H6.33334V31.6667H31.6667V34.8333H34.8333V22.1667C34.8333 21.3268 34.4997 20.5214 33.9058 19.9275C33.312 19.3336 32.5065 19 31.6667 19ZM11.0833 26.9167C11.0833 27.3366 10.9165 27.7393 10.6196 28.0363C10.3227 28.3332 9.91993 28.5 9.50001 28.5C9.08008 28.5 8.67735 28.3332 8.38042 28.0363C8.08349 27.7393 7.91667 27.3366 7.91667 26.9167V23.75C7.91667 23.3301 8.08349 22.9273 8.38042 22.6304C8.67735 22.3335 9.08008 22.1667 9.50001 22.1667C9.91993 22.1667 10.3227 22.3335 10.6196 22.6304C10.9165 22.9273 11.0833 23.3301 11.0833 23.75V26.9167ZM17.4167 26.9167C17.4167 27.3366 17.2499 27.7393 16.9529 28.0363C16.656 28.3332 16.2533 28.5 15.8333 28.5C15.4134 28.5 15.0107 28.3332 14.7138 28.0363C14.4168 27.7393 14.25 27.3366 14.25 26.9167V23.75C14.25 23.3301 14.4168 22.9273 14.7138 22.6304C15.0107 22.3335 15.4134 22.1667 15.8333 22.1667C16.2533 22.1667 16.656 22.3335 16.9529 22.6304C17.2499 22.9273 17.4167 23.3301 17.4167 23.75V26.9167ZM23.75 26.9167C23.75 27.3366 23.5832 27.7393 23.2863 28.0363C22.9893 28.3332 22.5866 28.5 22.1667 28.5C21.7467 28.5 21.344 28.3332 21.0471 28.0363C20.7502 27.7393 20.5833 27.3366 20.5833 26.9167V23.75C20.5833 23.3301 20.7502 22.9273 21.0471 22.6304C21.344 22.3335 21.7467 22.1667 22.1667 22.1667C22.5866 22.1667 22.9893 22.3335 23.2863 22.6304C23.5832 22.9273 23.75 23.3301 23.75 23.75V26.9167ZM30.0833 26.9167C30.0833 27.3366 29.9165 27.7393 29.6196 28.0363C29.3227 28.3332 28.9199 28.5 28.5 28.5C28.0801 28.5 27.6774 28.3332 27.3804 28.0363C27.0835 27.7393 26.9167 27.3366 26.9167 26.9167V23.75C26.9167 23.3301 27.0835 22.9273 27.3804 22.6304C27.6774 22.3335 28.0801 22.1667 28.5 22.1667C28.9199 22.1667 29.3227 22.3335 29.6196 22.6304C29.9165 22.9273 30.0833 23.3301 30.0833 23.75V26.9167Z" fill="#7D828A"/>
</svg>
